<svg width="11" height="20" viewBox="0 0 11 20" fill="none" xmlns="http://www.w3.org/2000/svg">
<path d="M9.30833 20C9.19866 20.0006 9.08994 19.9796 8.98841 19.9381C8.88688 19.8967 8.79453 19.8356 8.71667 19.7583L1.90833 12.95C1.52031 12.5629 1.21245 12.1031 1.0024 11.5969C0.792343 11.0907 0.684219 10.5481 0.684219 9.99999C0.684219 9.45193 0.792343 8.90925 1.0024 8.40304C1.21245 7.89683 1.52031 7.43704 1.90833 7.04999L8.71667 0.241658C8.79437 0.16396 8.88661 0.102326 8.98813 0.0602753C9.08965 0.018225 9.19845 -0.00341797 9.30833 -0.00341797C9.41822 -0.00341797 9.52702 0.018225 9.62854 0.0602753C9.73006 0.102326 9.8223 0.16396 9.9 0.241658C9.9777 0.319357 10.0393 0.411599 10.0814 0.513117C10.1234 0.614636 10.1451 0.723442 10.1451 0.833325C10.1451 0.943208 10.1234 1.05201 10.0814 1.15353C10.0393 1.25505 9.9777 1.34729 9.9 1.42499L3.09167 8.23333C2.6235 8.70208 2.36053 9.33749 2.36053 9.99999C2.36053 10.6625 2.6235 11.2979 3.09167 11.7667L9.9 18.575C9.97811 18.6525 10.0401 18.7446 10.0824 18.8462C10.1247 18.9477 10.1465 19.0566 10.1465 19.1667C10.1465 19.2767 10.1247 19.3856 10.0824 19.4871C10.0401 19.5887 9.97811 19.6809 9.9 19.7583C9.82213 19.8356 9.72979 19.8967 9.62826 19.9381C9.52673 19.9796 9.41801 20.0006 9.30833 20Z" fill="white"/>
</svg>
