<svg width="16" height="15" viewBox="0 0 16 15" fill="none" xmlns="http://www.w3.org/2000/svg">
<path d="M11.6667 0.277954C10.916 0.289631 10.1816 0.49919 9.53783 0.885468C8.89404 1.27175 8.36357 1.82107 7.99999 2.47795C7.63642 1.82107 7.10595 1.27175 6.46215 0.885468C5.81835 0.49919 5.08403 0.289631 4.33333 0.277954C3.13662 0.329948 2.00913 0.853457 1.19718 1.73411C0.385232 2.61476 -0.0451745 3.78097 -7.46106e-06 4.97795C-7.46106e-06 8.00929 3.19066 11.32 5.86666 13.5646C6.46414 14.0667 7.21956 14.342 7.99999 14.342C8.78042 14.342 9.53585 14.0667 10.1333 13.5646C12.8093 11.32 16 8.00929 16 4.97795C16.0452 3.78097 15.6148 2.61476 14.8028 1.73411C13.9909 0.853457 12.8634 0.329948 11.6667 0.277954Z" fill="#724CF9"/>
</svg>
